<svg width="259" height="129" viewBox="0 0 259 129" version="1.1" xmlns="http://www.w3.org/2000/svg" xmlns:xlink="http://www.w3.org/1999/xlink">
<g id="Canvas" fill="none">
<g id="Down">
<g id="Circles Down">
<g id="Ellipse">
<ellipse cx="8.42098" cy="8.7766" rx="8.42098" ry="8.7766" transform="translate(138.86 111.447)" fill="#BDBDBD" fill-opacity="0.2"/>
</g>
<g id="Ellipse_2">
<ellipse cx="16.8579" cy="17.5379" rx="16.8579" ry="17.5379" transform="matrix(-0.988042 0.154186 -0.142203 -0.989838 131.307 117.153)" fill="#BDBDBD" fill-opacity="0.2"/>
</g>
<g id="Ellipse_3">
<ellipse cx="16.8579" cy="17.5379" rx="16.8579" ry="17.5379" transform="matrix(-0.988042 0.154186 -0.142203 -0.989838 260.622 90.5183)" fill="#BDBDBD" fill-opacity="0.2"/>
</g>
<g id="Ellipse_4">
<ellipse cx="16.8579" cy="17.5379" rx="16.8579" ry="17.5379" transform="matrix(-0.988042 0.154186 -0.142203 -0.989838 105.808 58.2036)" fill="#BDBDBD" fill-opacity="0.2"/>
</g>
<g id="Ellipse_5">
<ellipse cx="16.8579" cy="17.5379" rx="16.8579" ry="17.5379" transform="matrix(-0.988042 0.154186 -0.142203 -0.989838 36.3005 91.6401)" fill="#BDBDBD" fill-opacity="0.2"/>
</g>
<g id="Ellipse_6">
<ellipse cx="16.8579" cy="17.5379" rx="16.8579" ry="17.5379" transform="matrix(-0.988042 0.154186 -0.142203 -0.989838 182.045 60.8285)" fill="#BDBDBD" fill-opacity="0.2"/>
</g>
<g id="Ellipse_7">
<ellipse cx="8.42894" cy="8.76895" rx="8.42894" ry="8.76895" transform="matrix(-0.988042 0.154186 -0.142203 -0.989838 141.704 17.1045)" fill="#BDBDBD" fill-opacity="0.2"/>
</g>
<g id="Ellipse_8">
<ellipse cx="8.42894" cy="8.76895" rx="8.42894" ry="8.76895" transform="matrix(-0.988042 0.154186 -0.142203 -0.989838 177.34 103.515)" fill="#BDBDBD" fill-opacity="0.2"/>
</g>
<g id="Ellipse_9">
<ellipse cx="8.42894" cy="8.76895" rx="8.42894" ry="8.76895" transform="matrix(-0.988042 0.154186 -0.142203 -0.989838 65.2971 88.7288)" fill="#BDBDBD" fill-opacity="0.2"/>
</g>
</g>
<g id="Lineas down">
<g id="Line">
<line y1="-0.5" x2="87.5456" y2="-0.5" transform="matrix(0.961897 -0.273414 0.253153 0.967426 63.8368 77.9363)" stroke="#BDBDBD" stroke-opacity="0.2"/>
</g>
<g id="Line_2">
<line y1="-0.5" x2="51.4251" y2="-0.5" transform="matrix(-0.982515 0.186183 -0.171856 -0.985122 226.132 82.7234)" stroke="#BDBDBD" stroke-opacity="0.2"/>
</g>
<g id="Line_3">
<line y1="-0.5" x2="26.5385" y2="-0.5" transform="matrix(0.750011 0.661425 -0.630298 0.776354 132.736 15.7021)" stroke="#BDBDBD" stroke-opacity="0.2"/>
</g>
<g id="Line_4">
<line y1="-0.5" x2="42.4317" y2="-0.5" transform="matrix(-0.613422 0.789756 -0.764307 -0.644853 152.64 63.5745)" stroke="#BDBDBD" stroke-opacity="0.2"/>
</g>
<g id="Line_5">
<line y1="-0.5" x2="27.1277" y2="-0.5" transform="matrix(0 1 -1 0 167.951 60.3829)" stroke="#BDBDBD" stroke-opacity="0.2"/>
</g>
<g id="Line_6">
<line y1="-0.5" x2="13.151" y2="-0.5" transform="matrix(0.931391 0.364021 -0.338558 0.940946 126.611 111.447)" stroke="#BDBDBD" stroke-opacity="0.2"/>
</g>
<g id="Line_7">
<line y1="-0.5" x2="44.8892" y2="-0.5" transform="matrix(-0.886812 0.462131 -0.432541 -0.901614 69.9611 50.8086)" stroke="#BDBDBD" stroke-opacity="0.2"/>
</g>
<g id="Line_8">
<line y1="-0.5" x2="41.4624" y2="-0.5" transform="matrix(0.997033 0.0769731 -0.0708939 0.997484 105.176 42.8298)" stroke="#BDBDBD" stroke-opacity="0.2"/>
</g>
</g>
</g>
</g>
</svg>

